<?xml version="1.0" encoding="UTF-8"?>
<svg xmlns="http://www.w3.org/2000/svg" xmlns:xlink="http://www.w3.org/1999/xlink" width="204pt" height="239pt" viewBox="0 0 204 239" version="1.1">
<g id="surface1">
<path style="fill-rule:evenodd;fill:rgb(61.568627%,52.54902%,29.019608%);fill-opacity:1;stroke-width:1;stroke-linecap:butt;stroke-linejoin:miter;stroke:rgb(61.568627%,52.54902%,29.019608%);stroke-opacity:1;stroke-miterlimit:4;" d="M 375.01138 99.530021 C 287.176514 99.530021 125.223926 122.245126 42.667055 170.183492 C -65.941094 554.979926 81.800423 816.706685 375.01138 965.183836 C 668.236449 816.706685 815.935629 553.690422 707.327479 170.183492 C 624.770609 122.245126 462.846245 99.530021 375.01138 99.530021 Z M 375.01138 99.530021 " transform="matrix(0.276798,0,0,0.275663,-1.806242,-27.300046)"/>
<path style="fill-rule:evenodd;fill:rgb(0.392157%,18.431373%,45.098039%);fill-opacity:1;stroke-width:1;stroke-linecap:butt;stroke-linejoin:miter;stroke:rgb(0.392157%,18.431373%,45.098039%);stroke-opacity:1;stroke-miterlimit:4;" d="M 375.01138 124.28566 C 288.686529 124.28566 191.551668 135.310209 64.301189 187.216279 C -30.448696 523.110761 79.471896 792.347816 375.01138 939.096182 C 670.564976 792.347816 780.443231 523.110761 685.707458 187.216279 C 558.442867 135.310209 461.350343 124.28566 375.01138 124.28566 Z M 375.01138 124.28566 " transform="matrix(0.276798,0,0,0.275663,-1.806242,-27.300046)"/>
<path style="fill-rule:evenodd;fill:rgb(100%,100%,100%);fill-opacity:1;stroke-width:1;stroke-linecap:butt;stroke-linejoin:miter;stroke:rgb(100%,100%,100%);stroke-opacity:1;stroke-miterlimit:4;" d="M 374.588011 123.988082 C 288.686529 123.988082 196.476855 136.670564 113.299044 168.213811 C 27.002418 512.128723 90.620601 763.241874 375.081941 938.798604 Z M 375.081941 938.798604 C 659.543281 763.241874 723.133239 512.128723 636.836613 168.213811 C 553.658802 136.670564 461.477353 123.988082 375.575871 123.988082 Z M 375.081941 938.798604 " transform="matrix(0.276798,0,0,0.275663,-1.806242,-27.300046)"/>
<path style="fill-rule:evenodd;fill:rgb(93.72549%,0%,2.745098%);fill-opacity:1;stroke-width:1;stroke-linecap:butt;stroke-linejoin:miter;stroke:rgb(93.72549%,0%,2.745098%);stroke-opacity:1;stroke-miterlimit:4;" d="M 375.081941 123.874719 C 288.742978 123.874719 201.303257 136.925631 130.205562 161.723781 C 40.832458 522.133005 112.607542 765.594155 375.223064 931.925974 Z M 375.081941 123.874719 " transform="matrix(0.276798,0,0,0.275663,-1.806242,-27.300046)"/>
<path style="fill-rule:evenodd;fill:rgb(85.882353%,0%,2.745098%);fill-opacity:1;stroke-width:1;stroke-linecap:butt;stroke-linejoin:miter;stroke:rgb(85.882353%,0%,2.745098%);stroke-opacity:1;stroke-miterlimit:4;" d="M 375.293625 123.874719 C 461.618476 123.874719 549.128759 136.925631 620.226453 161.723781 C 709.599557 522.133005 637.824473 765.594155 375.223064 931.925974 Z M 375.293625 123.874719 " transform="matrix(0.276798,0,0,0.275663,-1.806242,-27.300046)"/>
<path style=" stroke:none;fill-rule:evenodd;fill:rgb(100%,100%,100%);fill-opacity:1;" d="M 71.128906 156.808594 C 60.578125 163.996094 52.183594 166.589844 42.433594 169.160156 L 36.542969 160.0625 C 45.5 155.554688 54.777344 149.269531 64.117188 140.152344 C 64.917969 149 69.035156 155.257812 71.128906 156.808594 Z M 71.128906 156.808594 "/>
<path style=" stroke:none;fill-rule:evenodd;fill:rgb(61.568627%,52.54902%,29.019608%);fill-opacity:1;" d="M 69.683594 156.414062 C 59.6875 163.261719 45.734375 168.015625 29.765625 170.359375 L 26.519531 165.429688 C 40.179688 160.332031 53.382812 152.71875 63.621094 142.050781 C 65.171875 148.886719 67.535156 153.425781 69.683594 156.414062 Z M 69.683594 156.414062 "/>
<path style=" stroke:none;fill-rule:nonzero;fill:rgb(100%,100%,100%);fill-opacity:1;" d="M 43.015625 114.628906 C 43.015625 118.449219 39.910156 121.542969 36.074219 121.542969 C 32.238281 121.542969 29.132812 118.449219 29.132812 114.628906 C 29.132812 110.8125 32.238281 107.714844 36.074219 107.714844 C 39.910156 107.714844 43.015625 110.8125 43.015625 114.628906 Z M 43.015625 114.628906 "/>
<path style=" stroke:none;fill-rule:evenodd;fill:rgb(100%,100%,100%);fill-opacity:1;" d="M 42.285156 101.007812 L 42.285156 127.074219 L 62.90625 127.074219 C 64.257812 118.351562 69.253906 109.070312 80.539062 101.007812 L 42.285156 101.007812 "/>
<path style=" stroke:none;fill-rule:nonzero;fill:rgb(100%,100%,100%);fill-opacity:1;" d="M 43.105469 127.070312 C 40.101562 127.128906 37.3125 124.667969 35.796875 120.625 C 34.28125 116.582031 34.273438 111.578125 35.773438 107.519531 C 37.277344 103.464844 40.058594 100.976562 43.058594 101.007812 "/>
<path style=" stroke:none;fill-rule:nonzero;fill:rgb(61.568627%,52.54902%,29.019608%);fill-opacity:1;" d="M 40.089844 114.628906 C 40.089844 117.574219 37.941406 119.960938 35.292969 119.960938 C 32.640625 119.960938 30.492188 117.574219 30.492188 114.628906 C 30.492188 111.6875 32.640625 109.300781 35.292969 109.300781 C 37.941406 109.300781 40.089844 111.6875 40.089844 114.628906 Z M 40.089844 114.628906 "/>
<path style=" stroke:none;fill-rule:evenodd;fill:rgb(61.568627%,52.54902%,29.019608%);fill-opacity:1;" d="M 42.835938 102.386719 L 42.835938 125.816406 L 63.3125 125.816406 C 64.929688 118.03125 68.90625 109.742188 78.820312 102.386719 L 42.835938 102.386719 "/>
<path style=" stroke:none;fill-rule:nonzero;fill:rgb(61.568627%,52.54902%,29.019608%);fill-opacity:1;" d="M 43.609375 125.816406 C 40.785156 125.867188 38.164062 123.65625 36.738281 120.019531 C 35.308594 116.382812 35.300781 111.886719 36.714844 108.238281 C 38.125 104.589844 40.742188 102.355469 43.566406 102.386719 "/>
<path style=" stroke:none;fill-rule:nonzero;fill:rgb(100%,100%,100%);fill-opacity:1;" d="M 141.183594 133.1875 C 141.183594 154.933594 123.480469 172.5625 101.644531 172.5625 C 79.808594 172.5625 62.109375 154.933594 62.109375 133.1875 C 62.109375 111.441406 79.808594 93.8125 101.644531 93.8125 C 123.480469 93.8125 141.183594 111.441406 141.183594 133.1875 Z M 141.183594 133.1875 "/>
<path style=" stroke:none;fill-rule:nonzero;fill:rgb(61.568627%,52.54902%,29.019608%);fill-opacity:1;" d="M 139.109375 133.1875 C 139.109375 153.792969 122.335938 170.5 101.644531 170.5 C 80.953125 170.5 64.179688 153.792969 64.179688 133.1875 C 64.179688 112.582031 80.953125 95.875 101.644531 95.875 C 122.335938 95.875 139.109375 112.582031 139.109375 133.1875 Z M 139.109375 133.1875 "/>
<path style=" stroke:none;fill-rule:nonzero;fill:rgb(100%,100%,100%);fill-opacity:1;" d="M 132.890625 133.1875 C 132.890625 150.375 118.902344 164.304688 101.644531 164.304688 C 84.390625 164.304688 70.398438 150.375 70.398438 133.1875 C 70.398438 116 84.390625 102.070312 101.644531 102.070312 C 118.902344 102.070312 132.890625 116 132.890625 133.1875 Z M 132.890625 133.1875 "/>
<path style=" stroke:none;fill-rule:nonzero;fill:rgb(61.568627%,52.54902%,29.019608%);fill-opacity:1;" d="M 130.816406 133.1875 C 130.816406 149.234375 117.757812 162.242188 101.644531 162.242188 C 85.535156 162.242188 72.472656 149.234375 72.472656 133.1875 C 72.472656 117.140625 85.535156 104.132812 101.644531 104.132812 C 117.757812 104.132812 130.816406 117.140625 130.816406 133.1875 Z M 130.816406 133.1875 "/>
<path style=" stroke:none;fill-rule:nonzero;fill:rgb(100%,100%,100%);fill-opacity:1;" d="M 113.816406 133.1875 C 113.820312 139.882812 108.367188 145.3125 101.644531 145.3125 C 94.921875 145.3125 89.472656 139.882812 89.472656 133.1875 C 89.472656 126.492188 94.921875 121.0625 101.644531 121.0625 C 108.367188 121.0625 113.820312 126.492188 113.816406 133.1875 Z M 113.816406 133.1875 "/>
<path style=" stroke:none;fill-rule:nonzero;fill:rgb(61.568627%,52.54902%,29.019608%);fill-opacity:1;" d="M 112.375 133.1875 C 112.375 139.089844 107.570312 143.875 101.644531 143.875 C 95.71875 143.875 90.914062 139.089844 90.917969 133.1875 C 90.914062 127.285156 95.71875 122.5 101.644531 122.5 C 107.570312 122.5 112.375 127.285156 112.375 133.1875 Z M 112.375 133.1875 "/>
<path style=" stroke:none;fill-rule:nonzero;fill:rgb(100%,100%,100%);fill-opacity:1;" d="M 107.15625 133.1875 C 107.15625 136.21875 104.6875 138.675781 101.644531 138.675781 C 98.601562 138.675781 96.136719 136.21875 96.136719 133.1875 C 96.136719 130.15625 98.601562 127.699219 101.644531 127.699219 C 104.6875 127.699219 107.15625 130.15625 107.15625 133.1875 Z M 107.15625 133.1875 "/>
<path style=" stroke:none;fill-rule:nonzero;fill:rgb(61.568627%,52.54902%,29.019608%);fill-opacity:1;" d="M 105.640625 133.1875 C 105.640625 135.382812 103.851562 137.167969 101.644531 137.167969 C 99.4375 137.167969 97.652344 135.382812 97.652344 133.1875 C 97.652344 130.988281 99.4375 129.207031 101.644531 129.207031 C 103.851562 129.207031 105.640625 130.988281 105.640625 133.1875 Z M 105.640625 133.1875 "/>
<path style=" stroke:none;fill-rule:nonzero;fill:rgb(100%,100%,100%);fill-opacity:1;" d="M 97.449219 103.460938 L 105.753906 103.460938 L 105.753906 122.757812 L 97.449219 122.757812 Z M 97.449219 103.460938 "/>
<path style=" stroke:none;fill-rule:nonzero;fill:rgb(61.568627%,52.54902%,29.019608%);fill-opacity:1;" d="M 98.734375 100.703125 L 104.46875 100.703125 L 104.46875 125.222656 L 98.734375 125.222656 Z M 98.734375 100.703125 "/>
<path style=" stroke:none;fill-rule:nonzero;fill:rgb(100%,100%,100%);fill-opacity:1;" d="M 124.796875 114.363281 L 129.320312 121.300781 L 113.070312 131.808594 L 108.546875 124.875 Z M 124.796875 114.363281 "/>
<path style=" stroke:none;fill-rule:nonzero;fill:rgb(61.568627%,52.54902%,29.019608%);fill-opacity:1;" d="M 127.816406 113.933594 L 130.941406 118.726562 L 110.292969 132.082031 L 107.167969 127.289062 Z M 127.816406 113.933594 "/>
<path style=" stroke:none;fill-rule:nonzero;fill:rgb(100%,100%,100%);fill-opacity:1;" d="M 78.160156 114.363281 L 73.636719 121.300781 L 89.886719 131.808594 L 94.410156 124.875 Z M 78.160156 114.363281 "/>
<path style=" stroke:none;fill-rule:nonzero;fill:rgb(61.568627%,52.54902%,29.019608%);fill-opacity:1;" d="M 75.140625 113.933594 L 72.015625 118.726562 L 92.664062 132.082031 L 95.789062 127.289062 Z M 75.140625 113.933594 "/>
<path style=" stroke:none;fill-rule:nonzero;fill:rgb(100%,100%,100%);fill-opacity:1;" d="M 124.765625 152.097656 L 129.285156 145.164062 L 113.035156 134.652344 L 108.515625 141.589844 Z M 124.765625 152.097656 "/>
<path style=" stroke:none;fill-rule:nonzero;fill:rgb(61.568627%,52.54902%,29.019608%);fill-opacity:1;" d="M 127.785156 152.527344 L 130.910156 147.738281 L 110.261719 134.382812 L 107.136719 139.175781 Z M 127.785156 152.527344 "/>
<path style=" stroke:none;fill-rule:nonzero;fill:rgb(100%,100%,100%);fill-opacity:1;" d="M 78.128906 152.097656 L 73.605469 145.164062 L 89.855469 134.652344 L 94.378906 141.589844 Z M 78.128906 152.097656 "/>
<path style=" stroke:none;fill-rule:nonzero;fill:rgb(61.568627%,52.54902%,29.019608%);fill-opacity:1;" d="M 75.105469 152.527344 L 71.984375 147.738281 L 92.632812 134.382812 L 95.753906 139.175781 Z M 75.105469 152.527344 "/>
<path style=" stroke:none;fill-rule:nonzero;fill:rgb(100%,100%,100%);fill-opacity:1;" d="M 97.449219 144.257812 L 105.753906 144.257812 L 105.753906 163.554688 L 97.449219 163.554688 Z M 97.449219 144.257812 "/>
<path style=" stroke:none;fill-rule:nonzero;fill:rgb(61.568627%,52.54902%,29.019608%);fill-opacity:1;" d="M 98.734375 141.5 L 104.46875 141.5 L 104.46875 166.019531 L 98.734375 166.019531 Z M 98.734375 141.5 "/>
<path style="fill-rule:evenodd;fill:rgb(93.72549%,0%,2.745098%);fill-opacity:1;stroke-width:0.4;stroke-linecap:butt;stroke-linejoin:miter;stroke:rgb(93.72549%,0%,2.745098%);stroke-opacity:1;stroke-miterlimit:4;" d="M 337.87539 587.934689 C 341.953841 591.264726 346.342762 594.396378 351.987676 596.691978 L 351.832441 659.169146 C 323.537308 655.52736 302.114859 641.583715 285.899843 621.702684 L 337.917727 587.934689 " transform="matrix(0.276798,0,0,0.275663,0.0158879,-19.861024)"/>
<path style="fill-rule:evenodd;fill:rgb(85.882353%,0%,2.745098%);fill-opacity:1;stroke-width:0.4;stroke-linecap:butt;stroke-linejoin:miter;stroke:rgb(85.882353%,0%,2.745098%);stroke-opacity:1;stroke-miterlimit:4;" d="M 396.314365 588.133074 C 392.235914 591.463111 387.846994 594.608934 382.202079 596.904534 L 382.343202 659.367531 C 410.652447 655.725745 432.060784 641.7821 448.289912 621.901069 L 396.257916 588.133074 " transform="matrix(0.276798,0,0,0.275663,0.0158879,-19.861024)"/>
<path style=" stroke:none;fill-rule:evenodd;fill:rgb(85.882353%,0%,2.745098%);fill-opacity:1;" d="M 113.660156 135.054688 L 130.800781 132.976562 C 130.941406 137.25 129.914062 141.023438 128.453125 144.617188 L 113.617188 135.054688 "/>
<path style="fill-rule:evenodd;fill:rgb(100%,100%,100%);fill-opacity:1;stroke-width:0.4;stroke-linecap:butt;stroke-linejoin:miter;stroke:rgb(100%,100%,100%);stroke-opacity:1;stroke-miterlimit:4;" d="M 416.329857 578.027922 C 416.569766 576.993485 416.499204 576.185773 416.866124 573.295018 L 478.000545 565.35961 C 478.296903 568.207854 478.085218 569.228121 478.071106 570.574306 Z M 416.329857 578.027922 " transform="matrix(0.276798,0,0,0.275663,-1.555607,-24.360562)"/>
<path style=" stroke:none;fill-rule:evenodd;fill:rgb(100%,100%,100%);fill-opacity:1;" d="M 138.726562 120.773438 L 160.949219 120.773438 C 160.234375 123.390625 159.566406 126.046875 156.382812 127.234375 C 151.289062 129.132812 140.703125 130.976562 140.703125 130.976562 C 140.507812 128.085938 139.84375 124.1875 138.726562 120.773438 Z M 138.726562 120.773438 "/>
<path style=" stroke:none;fill-rule:evenodd;fill:rgb(100%,100%,100%);fill-opacity:1;" d="M 123.261719 100.621094 L 181.28125 100.707031 L 179.234375 121.796875 L 139.613281 123.867188 C 137.472656 114.433594 130.273438 105.410156 123.261719 100.621094 Z M 123.261719 100.621094 "/>
<path style=" stroke:none;fill-rule:evenodd;fill:rgb(61.568627%,52.54902%,29.019608%);fill-opacity:1;" d="M 125.316406 102.128906 L 199.398438 102.199219 L 196.558594 119.390625 L 139.089844 122.21875 C 136.816406 113.652344 131.632812 107.433594 125.316406 102.128906 Z M 125.316406 102.128906 "/>
<path style=" stroke:none;fill-rule:evenodd;fill:rgb(61.568627%,52.54902%,29.019608%);fill-opacity:1;" d="M 138.71875 120.769531 L 159.191406 120.769531 C 158.523438 123.105469 158.03125 125.222656 155.039062 126.28125 C 150.253906 127.976562 140.621094 129.324219 140.621094 129.324219 C 140.214844 126.527344 139.640625 123.691406 138.71875 120.769531 Z M 138.71875 120.769531 "/>
<path style=" stroke:none;fill-rule:nonzero;fill:rgb(61.568627%,52.54902%,29.019608%);fill-opacity:1;" d="M 116.269531 69.988281 C 116.269531 70.921875 116.074219 73.496094 115.972656 74.199219 L 127.457031 74.199219 C 126.757812 71.15625 126.457031 66.941406 126.355469 63.667969 C 126.355469 63.898438 126.15625 57.113281 126.15625 57.113281 C 126.15625 56.644531 126.355469 55.941406 126.65625 55.707031 C 127.054688 55.238281 127.457031 55.238281 127.953125 55.238281 C 128.453125 55.007812 129.351562 55.007812 129.453125 56.878906 L 129.75 63.902344 C 129.851562 67.175781 129.851562 71.625 129.453125 74.199219 L 140.535156 74.199219 C 140.433594 73.265625 140.132812 70.925781 140.035156 70.222656 C 141.433594 73.265625 144.429688 74.902344 148.421875 74.902344 C 150.820312 74.902344 152.617188 73.964844 154.011719 73.027344 C 154.011719 73.265625 154.613281 74.199219 154.613281 74.199219 L 175.179688 74.199219 C 174.28125 71.15625 173.683594 66.941406 173.382812 63.667969 L 170.488281 40.726562 L 159.902344 38.851562 C 160.804688 41.898438 161.402344 46.34375 161.800781 49.386719 L 163.398438 64.132812 C 163.699219 66.710938 163.898438 69.519531 163.898438 72.5625 L 163.898438 72.792969 L 163.5 71.859375 C 162.699219 69.988281 162.300781 67.644531 162 64.132812 L 161.601562 59.453125 C 161 51.960938 156.910156 48.683594 147.921875 48.683594 C 146.421875 48.683594 142.632812 48.917969 140.335938 49.621094 L 140.933594 58.046875 L 143.328125 56.640625 C 145.328125 55.472656 146.824219 55.003906 148.621094 55.003906 C 150.019531 55.003906 150.917969 55.472656 151.316406 56.410156 C 149.621094 56.640625 147.722656 57.109375 145.625 58.046875 C 142.429688 59.453125 140.433594 61.558594 139.535156 63.898438 C 139.535156 63.898438 139.535156 63.898438 139.535156 63.664062 L 139.234375 55.941406 C 139.035156 51.023438 135.839844 47.75 130.949219 47.75 C 128.753906 47.75 126.753906 48.449219 124.957031 49.621094 C 124.859375 49.386719 124.757812 49.152344 124.65625 48.917969 L 124.257812 47.984375 L 115.074219 47.515625 C 115.472656 49.15625 116.074219 53.835938 116.171875 55.476562 C 115.671875 53.132812 114.375 50.558594 111.976562 48.683594 C 110.078125 47.515625 107.683594 46.8125 105.191406 46.8125 C 101.796875 46.8125 98.300781 48.21875 96.003906 50.558594 C 93.605469 52.898438 92.410156 56.171875 92.308594 59.921875 C 91.410156 58.984375 90.214844 58.046875 88.816406 57.578125 L 84.621094 55.472656 L 84.421875 55.472656 C 83.425781 55.003906 83.324219 54.773438 83.324219 54.539062 C 83.425781 54.070312 84.421875 53.601562 85.722656 53.601562 C 87.515625 53.601562 90.011719 54.539062 92.011719 55.707031 L 92.207031 48.21875 C 90.710938 47.515625 88.617188 47.046875 85.621094 47.046875 C 84.023438 47.046875 81.027344 47.28125 78.429688 48.6875 C 77.734375 49.15625 77.132812 49.621094 76.535156 50.089844 L 76.632812 47.984375 C 74.238281 47.515625 71.640625 47.515625 68.445312 50.558594 C 68.34375 50.324219 68.148438 49.15625 67.949219 48.6875 L 58.0625 49.15625 C 58.761719 51.960938 58.863281 55.941406 58.660156 59.453125 L 58.460938 63.199219 L 58.460938 63.667969 C 58.363281 65.539062 58.261719 67.644531 58.0625 69.519531 C 57.265625 66.941406 56.367188 63.433594 55.667969 60.625 L 50.773438 38.621094 L 36.796875 40.726562 C 36.894531 40.960938 37.097656 41.664062 37.195312 42.363281 C 37.296875 43.300781 37.296875 45.171875 35.996094 49.15625 C 33.699219 55.476562 30.507812 65.070312 27.410156 71.859375 C 27.011719 72.796875 26.210938 74.199219 26.210938 74.199219 L 37.097656 74.199219 C 37.296875 72.5625 37.996094 69.753906 38.695312 67.644531 C 40.191406 67.644531 44.085938 67.644531 45.882812 67.414062 C 46.28125 69.050781 46.679688 71.15625 46.78125 72.5625 L 46.980469 74.203125 L 68.75 74.203125 C 68.246094 70.691406 68.449219 66.007812 68.644531 63.433594 C 68.847656 60.390625 69.445312 58.285156 70.742188 57.113281 C 71.742188 55.945312 72.839844 55.707031 73.640625 55.707031 C 73.539062 59.921875 76.234375 61.792969 78.632812 62.964844 L 82.921875 65.074219 C 84.421875 66.007812 84.421875 66.242188 84.421875 66.710938 C 84.324219 67.414062 83.125 67.648438 82.027344 67.648438 C 79.730469 67.648438 76.632812 66.242188 73.238281 62.496094 L 73.039062 72.328125 C 75.734375 73.734375 79.128906 74.4375 82.125 74.4375 C 87.117188 74.4375 92.410156 72.097656 93.804688 67.648438 C 96.304688 72.328125 101.195312 74.4375 105.988281 74.4375 C 110.28125 74.433594 113.476562 73.027344 116.269531 69.988281 Z M 41.289062 60.386719 C 41.890625 58.75 42.386719 57.347656 43.289062 54.773438 C 43.886719 57.347656 44.1875 58.984375 44.484375 60.15625 C 43.289062 60.386719 42.6875 60.386719 41.289062 60.386719 Z M 102.394531 57.8125 C 102.394531 54.539062 103.59375 53.132812 104.792969 53.132812 C 105.191406 53.132812 106.089844 52.898438 106.488281 54.539062 C 106.6875 55.238281 106.789062 55.707031 106.789062 55.941406 C 106.789062 56.878906 106.289062 57.109375 105.6875 57.109375 L 105.6875 57.347656 C 105.6875 57.347656 103.992188 57.8125 102.394531 58.515625 C 102.394531 58.28125 102.394531 58.046875 102.394531 57.8125 Z M 113.777344 64.601562 C 111.679688 66.476562 110.183594 67.644531 107.683594 67.644531 C 105.6875 67.410156 104.492188 66.242188 103.792969 64.601562 C 105.886719 63.898438 113.976562 60.859375 116.269531 59.921875 C 116.269531 61.792969 116.371094 63.898438 116.371094 63.898438 C 116.371094 65.304688 116.371094 66.710938 116.371094 67.878906 Z M 151.015625 67.878906 C 149.121094 67.878906 148.722656 66.476562 148.621094 65.539062 C 148.71875 64.601562 149.019531 63.199219 152.015625 62.261719 C 152.117188 63.429688 152.21875 64.367188 152.21875 64.367188 L 152.21875 65.304688 C 152.316406 66.007812 152.316406 66.710938 152.414062 67.410156 C 152.015625 67.644531 151.519531 67.644531 151.015625 67.878906 "/>
<path style=" stroke:none;fill-rule:nonzero;fill:rgb(100%,100%,100%);fill-opacity:1;" d="M 90.511719 49.386719 C 89.511719 49.152344 88.015625 48.683594 85.621094 48.683594 C 83.722656 48.683594 81.226562 49.152344 79.332031 50.089844 C 77.132812 51.496094 75.535156 53.367188 75.4375 55.476562 C 75.234375 58.75 76.933594 60.15625 79.429688 61.324219 C 81.128906 62.261719 82.726562 63.199219 83.722656 63.667969 C 85.023438 64.367188 86.21875 65.070312 86.117188 66.710938 C 86.019531 68.347656 84.523438 69.519531 82.027344 69.519531 C 79.929688 69.519531 76.933594 68.113281 74.835938 66.242188 L 74.738281 71.15625 C 76.535156 72.09375 79.429688 72.5625 82.125 72.5625 C 86.71875 72.5625 92.410156 70.457031 92.511719 65.304688 C 92.609375 61.324219 89.8125 59.921875 88.117188 58.984375 C 86.417969 58.28125 84.722656 57.347656 83.921875 57.113281 C 83.125 56.644531 81.527344 56.175781 81.628906 54.304688 C 81.824219 52.664062 83.722656 51.960938 85.722656 51.960938 C 87.417969 51.960938 89.113281 52.429688 90.414062 53.132812 "/>
<path style=" stroke:none;fill-rule:nonzero;fill:rgb(100%,100%,100%);fill-opacity:1;" d="M 49.476562 40.726562 L 38.894531 42.132812 C 39.09375 43.535156 38.695312 46.34375 37.597656 49.621094 C 35.398438 55.941406 31.804688 66.476562 29.007812 72.5625 L 35.597656 72.5625 C 35.996094 70.453125 36.496094 68.582031 37.496094 66.007812 L 47.28125 65.773438 C 47.679688 67.644531 48.378906 70.6875 48.476562 72.5625 L 57.363281 72.5625 C 56.265625 69.988281 54.867188 64.601562 53.96875 60.859375 Z M 38.894531 62.027344 L 43.6875 48.21875 L 46.582031 61.792969 "/>
<path style=" stroke:none;fill-rule:nonzero;fill:rgb(100%,100%,100%);fill-opacity:1;" d="M 74.835938 49.386719 L 74.636719 54.070312 C 73.039062 53.835938 71.042969 54.304688 69.445312 55.941406 C 68.046875 57.347656 67.148438 59.453125 66.949219 63.199219 C 66.75 66.242188 66.652344 69.753906 66.851562 72.5625 L 59.359375 72.5625 C 59.859375 69.753906 60.058594 66.476562 60.160156 63.433594 L 60.359375 59.6875 C 60.558594 56.644531 60.558594 53.601562 60.0625 50.792969 L 66.652344 50.558594 C 66.949219 51.496094 67.148438 53.136719 67.050781 54.773438 C 69.945312 50.324219 72.742188 49.386719 74.835938 49.386719 "/>
<path style=" stroke:none;fill-rule:nonzero;fill:rgb(100%,100%,100%);fill-opacity:1;" d="M 168.992188 42.132812 L 162.199219 40.960938 C 162.898438 44.003906 163.101562 46.109375 163.5 49.152344 L 165.097656 63.898438 C 165.398438 66.941406 165.695312 69.753906 165.59375 72.5625 L 172.984375 72.5625 C 172.285156 69.753906 171.988281 66.941406 171.6875 63.898438 "/>
<path style=" stroke:none;fill-rule:nonzero;fill:rgb(100%,100%,100%);fill-opacity:1;" d="M 138.539062 72.5625 C 138.140625 69.753906 137.941406 66.941406 137.839844 63.898438 L 137.539062 56.175781 C 137.339844 51.960938 134.945312 49.621094 130.949219 49.621094 C 128.753906 49.621094 126.15625 50.324219 123.960938 53.132812 C 123.859375 52.429688 123.5625 50.558594 123.160156 49.621094 L 117.171875 49.386719 C 117.667969 52.195312 117.871094 55.003906 117.96875 58.046875 L 118.070312 63.898438 C 118.167969 66.941406 118.070312 69.75 117.871094 72.5625 L 125.359375 72.5625 C 124.960938 69.75 124.757812 66.941406 124.660156 63.898438 L 124.460938 57.34375 C 124.363281 55.003906 126.15625 53.363281 127.957031 53.363281 C 130.050781 53.363281 131.050781 54.769531 131.148438 56.875 L 131.449219 63.898438 C 131.550781 66.941406 131.550781 69.75 131.351562 72.558594 "/>
<path style=" stroke:none;fill-rule:nonzero;fill:rgb(100%,100%,100%);fill-opacity:1;" d="M 161.902344 72.5625 C 161 70.21875 160.503906 67.410156 160.304688 64.367188 L 159.902344 59.6875 C 159.503906 54.070312 157.109375 50.324219 147.921875 50.324219 C 146.324219 50.324219 144.027344 50.558594 142.132812 51.023438 L 142.429688 55.238281 C 144.328125 54.070312 146.226562 53.132812 148.621094 53.132812 C 151.117188 53.132812 153.214844 54.300781 153.414062 57.8125 C 151.015625 58.046875 148.820312 58.515625 146.324219 59.6875 C 143.527344 60.855469 140.632812 63.199219 140.933594 66.941406 C 141.230469 71.15625 144.425781 73.027344 148.421875 73.027344 C 151.519531 73.027344 153.613281 71.625 154.8125 70.21875 C 155.011719 71.15625 155.3125 71.859375 155.609375 72.5625 Z M 151.015625 69.519531 C 148.824219 69.519531 147.023438 68.347656 146.925781 65.773438 C 146.925781 63.199219 148.523438 61.089844 153.613281 60.390625 L 153.914062 64.371094 C 154.011719 65.773438 154.011719 66.710938 154.210938 67.878906 C 153.515625 68.816406 152.316406 69.285156 151.015625 69.519531 "/>
<path style=" stroke:none;fill-rule:nonzero;fill:rgb(100%,100%,100%);fill-opacity:1;" d="M 110.980469 50.089844 C 109.28125 48.917969 107.285156 48.449219 105.191406 48.449219 C 100.296875 48.449219 93.808594 51.960938 94.007812 60.855469 C 94.105469 69.984375 101.097656 72.792969 105.988281 72.792969 C 110.28125 72.792969 112.878906 71.15625 114.976562 69.050781 L 113.476562 66.941406 C 112.378906 67.878906 110.582031 69.285156 107.6875 69.285156 C 104.589844 69.050781 102.59375 66.941406 101.496094 63.667969 L 115.074219 58.75 C 114.675781 54.304688 113.078125 51.726562 110.980469 50.089844 Z M 106.289062 58.75 L 100.898438 60.859375 C 100.796875 59.921875 100.695312 58.984375 100.695312 57.8125 C 100.695312 52.429688 103.695312 51.496094 104.691406 51.496094 C 106.289062 51.261719 107.6875 52.195312 108.1875 54.070312 C 108.785156 56.175781 108.585938 58.046875 106.289062 58.75 "/>
</g>
</svg>
